<?xml version="1.0" encoding="UTF-8"?>
<svg width="180px" height="200px" viewBox="0 0 180 200" version="1.1" xmlns="http://www.w3.org/2000/svg" xmlns:xlink="http://www.w3.org/1999/xlink">
    <!-- Generator: Sketch 48.1 (47250) - http://www.bohemiancoding.com/sketch -->
    <title>Bank Statement</title>
    <desc>Created with Sketch.</desc>
    <defs>
        <rect id="path-1" x="0.130434783" y="0" width="200" height="200"></rect>
    </defs>
    <g id="Artboard" stroke="none" stroke-width="1" fill="none" fill-rule="evenodd" transform="translate(-10.000000, 0.000000)">
        <g id="Bank-Statement" transform="translate(-0.130435, 0.000000)">
            <mask id="mask-2" fill="white">
                <use xlink:href="#path-1"></use>
            </mask>
            <g id="Mask"></g>
            <path d="M154.478261,178.26087 L45.7826087,178.26087 C38.5913043,178.26087 32.7391304,172.413043 32.7391304,165.217391 L32.7391304,34.7826087 C32.7391304,27.5913043 38.5913043,21.7391304 45.7826087,21.7391304 L58.826087,21.7391304 L58.826087,30.4347826 L45.7826087,30.4347826 C43.3869565,30.4347826 41.4347826,32.3869565 41.4347826,34.7826087 L41.4347826,165.217391 C41.4347826,167.617391 43.3869565,169.565217 45.7826087,169.565217 L154.478261,169.565217 C156.873913,169.565217 158.826087,167.617391 158.826087,165.217391 L158.826087,152.173913 L167.521739,152.173913 L167.521739,165.217391 C167.521739,172.413043 161.669565,178.26087 154.478261,178.26087" id="Fill-623" fill="#002B60" mask="url(#mask-2)"></path>
            <path d="M132.73913,200 L24.0434783,200 C16.8521739,200 11,194.152174 11,186.956522 L11,56.5217391 C11,49.3304348 16.8521739,43.4782609 24.0434783,43.4782609 L37.0869565,43.4782609 L37.0869565,52.173913 L24.0434783,52.173913 C21.6478261,52.173913 19.6956522,54.126087 19.6956522,56.5217391 L19.6956522,186.956522 C19.6956522,189.356522 21.6478261,191.304348 24.0434783,191.304348 L132.73913,191.304348 C135.134783,191.304348 137.086957,189.356522 137.086957,186.956522 L137.086957,173.913043 L145.782609,173.913043 L145.782609,186.956522 C145.782609,194.152174 139.930435,200 132.73913,200" id="Fill-624" fill="#002B60" mask="url(#mask-2)"></path>
            <path d="M67.5217391,8.69565217 C65.126087,8.69565217 63.173913,10.6478261 63.173913,13.0434783 L63.173913,143.478261 C63.173913,145.878261 65.126087,147.826087 67.5217391,147.826087 L176.217391,147.826087 C178.613043,147.826087 180.565217,145.878261 180.565217,143.478261 L180.565217,58.326087 L130.93913,8.69565217 L67.5217391,8.69565217 Z M176.217391,156.521739 L67.5217391,156.521739 C60.3304348,156.521739 54.4782609,150.673913 54.4782609,143.478261 L54.4782609,13.0434783 C54.4782609,5.85217391 60.3304348,0 67.5217391,0 L132.73913,0 C133.891304,0 135,0.460869565 135.813043,1.27391304 L187.986957,53.4478261 C188.804348,54.2652174 189.26087,55.3695652 189.26087,56.5217391 L189.26087,143.478261 C189.26087,150.673913 183.408696,156.521739 176.217391,156.521739 Z" id="Fill-621" fill="#88BC47" mask="url(#mask-2)"></path>
            <path d="M184.913043,60.8695652 L132.73913,60.8695652 C130.33913,60.8695652 128.391304,58.926087 128.391304,56.5217391 L128.391304,8.69565217 L137.086957,8.69565217 L137.086957,52.173913 L184.913043,52.173913 L184.913043,60.8695652" id="Fill-622" fill="#88BC47" mask="url(#mask-2)"></path>
        </g>
    </g>
</svg>